<svg width="19" height="19" viewBox="0 0 19 19" fill="none" xmlns="http://www.w3.org/2000/svg">
<path d="M9.49988 1.78109C7.97324 1.78109 6.4809 2.23379 5.21155 3.08194C3.9422 3.93009 2.95287 5.1356 2.36865 6.54602C1.78443 7.95645 1.63158 9.50844 1.92941 11.0057C2.22724 12.503 2.96238 13.8784 4.04187 14.9579C5.12136 16.0374 6.49672 16.7725 7.99402 17.0703C9.49131 17.3682 11.0433 17.2153 12.4537 16.6311C13.8641 16.0469 15.0697 15.0575 15.9178 13.7882C16.766 12.5189 17.2187 11.0265 17.2187 9.49987C17.2165 7.45339 16.4026 5.49134 14.9555 4.04426C13.5084 2.59717 11.5464 1.78325 9.49988 1.78109ZM9.49988 16.0311C8.20811 16.0311 6.94535 15.6481 5.87129 14.9304C4.79723 14.2128 3.9601 13.1927 3.46576 11.9993C2.97143 10.8058 2.84208 9.49263 3.09409 8.22568C3.34611 6.95874 3.96815 5.79498 4.88157 4.88156C5.79498 3.96815 6.95874 3.3461 8.22569 3.09409C9.49263 2.84208 10.8059 2.97142 11.9993 3.46576C13.1927 3.9601 14.2128 4.79723 14.9304 5.87129C15.6481 6.94535 16.0312 8.20811 16.0312 9.49987C16.0292 11.2315 15.3404 12.8916 14.116 14.116C12.8916 15.3404 11.2315 16.0292 9.49988 16.0311ZM7.12487 9.49987C7.12487 9.99835 7.28171 10.4842 7.57317 10.8886C7.86463 11.2929 8.27594 11.5954 8.74883 11.753C9.22172 11.9106 9.73223 11.9155 10.208 11.7669C10.6838 11.6182 11.1008 11.3237 11.3999 10.9249C11.4945 10.7989 11.6352 10.7157 11.7912 10.6935C11.9471 10.6713 12.1055 10.7119 12.2315 10.8065C12.3575 10.9011 12.4407 11.0418 12.4629 11.1978C12.4851 11.3538 12.4445 11.5121 12.3499 11.6381C11.9012 12.2361 11.2757 12.6778 10.562 12.9005C9.84833 13.1233 9.08266 13.1159 8.37343 12.8794C7.66419 12.6429 7.04734 12.1893 6.61023 11.5827C6.17313 10.9762 5.93792 10.2475 5.93792 9.49987C5.93792 8.75224 6.17313 8.02356 6.61023 7.41702C7.04734 6.81048 7.66419 6.35683 8.37343 6.12032C9.08266 5.88381 9.84833 5.87642 10.562 6.0992C11.2757 6.32198 11.9012 6.76363 12.3499 7.36162C12.3967 7.424 12.4308 7.49499 12.4502 7.57054C12.4696 7.64609 12.4739 7.72473 12.4629 7.80195C12.4519 7.87917 12.4258 7.95348 12.3861 8.02062C12.3464 8.08775 12.2939 8.14641 12.2315 8.19325C12.1691 8.24008 12.0981 8.27417 12.0226 8.29356C11.947 8.31296 11.8684 8.31728 11.7912 8.30629C11.714 8.2953 11.6397 8.2692 11.5725 8.2295C11.5054 8.18979 11.4467 8.13724 11.3999 8.07487C11.1008 7.67609 10.6838 7.38152 10.208 7.23289C9.73223 7.08426 9.22172 7.08911 8.74883 7.24674C8.27594 7.40437 7.86463 7.7068 7.57317 8.11118C7.28171 8.51556 7.12487 9.0014 7.12487 9.49987Z" fill="white"/>
</svg>
